<?xml version="1.0" standalone="no"?>
<!DOCTYPE svg PUBLIC "-//W3C//DTD SVG 20010904//EN"
 "http://www.w3.org/TR/2001/REC-SVG-20010904/DTD/svg10.dtd">
<svg version="1.0" xmlns="http://www.w3.org/2000/svg"
 width="300.000000pt" height="300.000000pt" viewBox="0 0 300.000000 300.000000"
 preserveAspectRatio="xMidYMid meet">
<metadata>
Created by potrace 1.10, written by Peter Selinger 2001-2011
</metadata>
<g transform="translate(0.000000,300.000000) scale(0.100000,-0.100000)"
fill="#000000" stroke="none">
<path d="M1479 2456 c-2 -2 -24 -7 -49 -11 -24 -4 -60 -13 -79 -21 -36 -15
-145 -103 -138 -111 3 -2 -5 -15 -18 -29 -59 -64 -67 -246 -15 -344 32 -61
112 -137 170 -163 50 -22 49 -23 -40 -47 -25 -7 -59 -18 -76 -25 -32 -13 -134
-102 -134 -116 0 -4 -4 -19 -9 -32 l-10 -25 -63 23 c-35 13 -91 33 -125 46
l-62 24 -25 -24 c-24 -23 -26 -31 -26 -116 0 -56 4 -95 12 -103 9 -9 1 -21
-33 -50 l-44 -39 -3 -82 c-2 -45 -1 -92 2 -106 6 -25 42 -66 72 -83 13 -7 14
-13 5 -30 -6 -11 -11 -50 -11 -85 0 -55 4 -70 30 -105 26 -37 101 -91 132 -96
7 -1 22 -7 33 -13 20 -10 190 -61 232 -69 12 -2 35 -9 50 -15 73 -29 164 -51
223 -54 53 -3 86 3 175 32 61 19 143 43 183 54 196 53 269 85 321 144 46 53
66 149 40 197 -10 18 -8 24 7 35 54 38 63 47 74 73 7 18 11 63 9 115 -4 85 -5
87 -40 119 -20 18 -41 35 -48 37 -9 3 -10 11 -2 32 6 16 11 62 11 102 0 64 -3
78 -24 102 -28 32 -32 31 -191 -30 l-90 -34 -6 29 c-15 66 -141 159 -242 177
-26 5 -50 11 -53 14 -3 3 14 16 38 28 67 34 103 65 142 122 97 144 80 324 -42
444 -66 64 -86 75 -170 97 -65 16 -86 19 -93 12z m144 -70 c64 -29 129 -95
159 -161 31 -68 32 -180 1 -246 -29 -64 -87 -126 -147 -156 -68 -35 -173 -42
-244 -19 -65 22 -145 93 -180 160 -23 44 -27 63 -27 136 0 69 5 94 24 132 78
158 257 225 414 154z m68 -697 c19 -6 48 -17 64 -26 31 -16 115 -92 115 -104
0 -9 -67 -33 -180 -65 -104 -29 -144 -46 -176 -76 -22 -19 -22 -19 -69 16 -25
20 -53 36 -61 36 -30 0 -264 74 -264 83 0 19 93 99 139 120 75 34 343 44 432
16z m-823 -118 c53 -27 330 -124 430 -151 92 -25 137 -55 158 -106 10 -25 14
-113 14 -376 1 -188 -2 -344 -5 -346 -5 -2 -74 17 -210 58 -33 10 -109 33
-170 51 -129 37 -191 66 -234 109 -29 29 -31 37 -31 100 l0 68 49 12 c28 6 59
22 72 37 22 22 24 36 29 141 4 92 2 123 -10 146 -20 40 -59 66 -106 73 l-39 5
3 99 c2 54 5 99 8 99 3 0 22 -9 42 -19z m1302 -80 l0 -99 -32 -8 c-87 -18
-108 -58 -108 -199 0 -142 19 -177 105 -195 28 -5 30 -9 33 -59 7 -119 -50
-167 -273 -230 -137 -39 -264 -78 -333 -103 l-53 -18 3 357 c3 310 5 362 19
388 26 46 48 62 119 84 214 67 297 95 395 135 61 24 113 44 118 45 4 1 7 -44
7 -98z m-1275 -196 c22 -21 25 -33 25 -99 0 -41 -5 -86 -11 -100 -23 -49 -97
-58 -139 -16 -17 17 -20 34 -20 105 0 78 2 88 25 110 16 17 35 25 60 25 25 0
44 -8 60 -25z m1329 4 c24 -19 26 -26 26 -104 0 -100 -4 -111 -42 -131 -38
-20 -82 -10 -108 23 -16 21 -20 41 -20 105 0 70 3 82 25 103 30 31 82 33 119
4z"/>
</g>
</svg>
